<?xml version="1.0" encoding="utf-8"?>
<!-- Uploaded to: SVG Repo, www.svgrepo.com, Generator: SVG Repo Mixer Tools -->
<svg width="800px" height="800px" viewBox="0 0 32 32" fill="none" xmlns="http://www.w3.org/2000/svg">
<g clip-path="url(#clip0_901_2797)">
<path d="M23.3398 19.0996L30.5398 26.2896C30.9298 26.6796 30.9298 27.3206 30.5398 27.7096L27.7098 30.5396C27.3198 30.9296 26.6798 30.9296 26.2898 30.5396L19.1298 23.3706L19.1108 23.3296C19.9698 22.8206 20.7598 22.2006 21.4698 21.4996C21.4698 21.4996 22.5498 20.5196 23.3298 19.1106L23.3398 19.0996Z" fill="#FFE6EA"/>
<path d="M23.3301 19.0898L23.3401 19.0998L23.3301 19.1108C22.5501 20.5198 21.4701 21.4998 21.4701 21.4998C20.7601 22.1998 19.9701 22.8198 19.1101 23.3298C17.3201 24.3898 15.2301 24.9998 13.0001 24.9998C6.37012 24.9998 1.00012 19.6298 1.00012 12.9998C1.00012 6.36976 6.37012 0.999756 13.0001 0.999756C19.6301 0.999756 25.0001 6.36976 25.0001 12.9998C25.0001 15.6598 23.3301 19.0898 23.3301 19.0898Z" fill="#FFC44D"/>
<path d="M21.4327 25.6768L26.2927 30.5348C26.6837 30.9258 27.3167 30.9258 27.7067 30.5348L30.5357 27.7068C30.9257 27.3168 30.9257 26.6838 30.5357 26.2928L23.3337 19.0918C23.3337 19.0918 24.9997 15.6558 24.9997 12.9998C24.9997 6.37276 19.6267 0.999756 12.9997 0.999756C6.37269 0.999756 0.999695 6.37276 0.999695 12.9998C0.999695 19.6268 6.37269 24.9998 12.9997 24.9998C16.3067 24.9998 19.2997 23.6628 21.4697 21.4998M7.00009 11.0001H19.0001M7.00009 15.0001H12.0001" stroke="#000000" stroke-width="2" stroke-linecap="round" stroke-linejoin="round"/>
</g>
<defs>
<clipPath id="clip0_901_2797">
<rect width="32" height="32" fill="white"/>
</clipPath>
</defs>
</svg>